<?xml version="1.0" encoding="utf-8"?>
<!-- Generator: Adobe Illustrator 15.1.0, SVG Export Plug-In . SVG Version: 6.00 Build 0)  -->
<!DOCTYPE svg PUBLIC "-//W3C//DTD SVG 1.1//EN" "http://www.w3.org/Graphics/SVG/1.1/DTD/svg11.dtd">
<svg version="1.1" id="Layer_1" xmlns="http://www.w3.org/2000/svg" xmlns:xlink="http://www.w3.org/1999/xlink" x="0px" y="0px"
	 width="129.313px" height="60px" viewBox="0 125.584 792 367.481" enable-background="new 0 125.584 792 367.481"
	 xml:space="preserve">
<g id="Layer_2" display="none">
	<polyline display="inline" fill="#11659E" stroke="#82B85A" stroke-miterlimit="10" points="792,612 0,612 0,0 792,0 	"/>
</g>
<path fill="#77CE56" stroke="#FFFFFF" stroke-width="12" stroke-miterlimit="10" d="M295.805,255.434
	c0.143,41.76-33.465,75.652-75.082,75.652c-41.188,0-75.082-33.75-75.224-74.938c-0.144-41.76,33.179-75.654,74.938-75.796
	C262.197,180.208,295.663,213.529,295.805,255.434z"/>
<path fill="#77CE56" stroke="#FFFFFF" stroke-width="12" stroke-miterlimit="10" d="M110.943,483.216
	c-34.609,0-62.21-27.889-62.21-62.926c0-34.609,28.03-62.498,62.782-62.354c34.609,0.144,62.783,28.175,62.783,62.64
	C174.44,455.47,146.124,483.358,110.943,483.216L110.943,483.216z"/>
<path fill="#77CE56" stroke="#FFFFFF" stroke-width="10" stroke-miterlimit="10" d="M22.592,179.239
	c0.136-23.064,18.859-41.516,42.059-41.38c23.064,0.135,41.652,19.13,41.381,42.059c-0.271,23.064-19.537,42.059-42.059,41.518
	C40.772,221.027,22.457,202.305,22.592,179.239z"/>
<path fill="#FFFFFF" d="M42.305,256.236c-6.47-0.151-11.886-5.719-11.585-12.188c0.301-6.168,5.567-11.435,11.736-11.435
	c6.47-0.151,11.886,5.416,11.886,11.886C54.341,251.12,48.925,256.386,42.305,256.236z M43.959,289.639
	c-6.771,0-11.886-5.115-11.886-11.736c0-6.168,5.116-11.436,11.435-11.586c6.62-0.149,12.037,4.966,12.187,11.586
	C55.695,284.673,50.73,289.639,43.959,289.639z M213.226,372.842c-6.771-0.15-11.736-5.417-11.435-12.037
	c0.151-6.62,5.567-11.436,12.338-11.283c6.47,0.301,11.134,5.266,11.134,11.734C225.112,368.026,219.997,372.992,213.226,372.842z
	 M140.103,165.058c0,6.771-5.266,11.736-12.036,11.585c-6.771-0.15-11.586-5.266-11.285-12.188
	c0.301-6.47,4.965-11.134,11.585-11.134C135.138,153.172,140.253,158.287,140.103,165.058z M192.613,374.496
	c6.771,0,12.037,5.115,11.886,11.736c0,6.619-5.266,11.734-12.037,11.585c-6.47-0.15-11.285-4.814-11.435-11.284
	C180.877,379.763,185.993,374.496,192.613,374.496z M61.864,314.915c0,6.771-5.266,11.886-11.886,11.735
	c-6.62-0.149-11.585-5.566-11.435-12.338c0.151-6.169,5.417-11.436,11.585-11.436C56.749,302.878,61.864,308.295,61.864,314.915z
	 M159.061,187.326c-6.921,0-11.585-4.664-11.585-11.735c0-6.921,4.965-11.736,11.736-11.585c6.469,0.15,11.133,4.965,11.284,11.435
	C170.496,182.511,165.981,187.326,159.061,187.326L159.061,187.326z M67.431,333.422c6.47,0.15,11.435,5.717,11.134,12.487
	c-0.301,6.771-5.567,11.585-12.338,11.134c-6.319-0.3-10.983-5.566-10.833-12.036C55.545,338.387,60.961,333.271,67.431,333.422z"/>
<g>
	<path fill="#FFFFFF" stroke="#FFFFFF" stroke-width="3" stroke-miterlimit="10" d="M435.1,189.228c0,1.575-0.8,2.362-2.399,2.362
		H420.1v121.598c0,1.868-0.928,2.803-2.781,2.803h-10.73c-1.325,0-2.319-0.682-2.981-2.05l-46.272-98.966
		c-2.281-4.928-4.225-10.722-5.834-17.385c1.331,6.812,2,12.891,2,18.234v87.366h12.8c1.6,0,2.4,0.787,2.4,2.362v8.075
		c0,1.575-0.8,2.362-2.4,2.362h-40c-1.6,0-2.4-0.787-2.4-2.362v-8.075c0-1.575,0.8-2.362,2.4-2.362h12.6V191.59h-12.6
		c-1.6,0-2.4-0.787-2.4-2.362v-8.075c0-1.574,0.8-2.362,2.4-2.362h28c1.466,0,2.531,0.669,3.2,2l44.2,93.2
		c1.865,4,3.6,9.135,5.2,15.4c-0.935-5.613-1.4-10.957-1.4-16.031v-81.77h-12.6c-1.601,0-2.4-0.787-2.4-2.362v-8.075
		c0-1.574,0.8-2.362,2.4-2.362h39.8c1.6,0,2.399,0.788,2.399,2.362V189.228z"/>
	<path fill="#FFFFFF" stroke="#FFFFFF" stroke-width="3" stroke-miterlimit="10" d="M523.5,267.79c0,2.4-0.731,3.601-2.194,3.601
		H464.1c1.062,22.534,9.831,33.8,26.307,33.8c7.04,0,14.747-2.4,23.118-7.2c0.663-0.4,1.328-0.6,1.994-0.6
		c0.531,0,0.994,0.334,1.394,1l3.588,7.8c0.266,0.534,0.399,1,0.399,1.399c0,1.469-2.399,3.335-7.199,5.601
		c-8,3.731-16.2,5.6-24.601,5.6c-12.669,0-22.769-4.565-30.3-13.7c-7.534-9.131-11.3-21.431-11.3-36.899
		c0-15.466,3.6-27.831,10.8-37.101c7.2-9.266,16.8-13.899,28.8-13.899c16.8,0,27.932,8,33.4,24
		C522.5,247.059,523.5,255.925,523.5,267.79z M507.3,258.99c-0.4-19.731-7.435-29.6-21.104-29.6c-13.537,0-20.902,9.868-22.097,29.6
		H507.3z"/>
	<path fill="#FFFFFF" stroke="#FFFFFF" stroke-width="3" stroke-miterlimit="10" d="M622.1,267.391c0,16.134-3.6,28.734-10.8,37.8
		c-7.2,9.068-17.269,13.6-30.2,13.6c-12.134,0-21.6-4.431-28.399-13.3c-6.801-8.865-10.2-21.231-10.2-37.1
		c0-16.132,3.6-28.7,10.8-37.7s17.266-13.5,30.2-13.5c12.131,0,21.6,4.435,28.399,13.3C618.7,239.359,622.1,251.659,622.1,267.391z
		 M605.899,267.193c0-24.8-7.934-37.203-23.8-37.203c-15.6,0-23.399,12.138-23.399,36.409c0,13.663,2.065,23.94,6.199,30.838
		c3.466,5.837,9.332,8.753,17.601,8.753c7.865,0,13.531-2.784,17-8.356C603.766,290.737,605.899,280.59,605.899,267.193z"/>
	<path fill="#FFFFFF" stroke="#FFFFFF" stroke-width="3" stroke-miterlimit="10" d="M728.5,284.834c0,1.838-0.935,2.756-2.8,2.756
		h-15.8v28.4c0,1.865-0.947,2.8-2.838,2.8h-9.524c-1.895,0-2.838-0.935-2.838-2.8v-28.4h-51.01c-1.862,0-2.79-0.931-2.79-2.8v-11.2
		l51.803-85.797c0.666-1.068,1.4-1.603,2.2-1.603h1.2l9.997,1.584c1.6,0.266,2.399,0.859,2.399,1.784
		c0,0.528-0.297,1.122-0.884,1.781l-51.085,83.45h38.359l2.21-32.384c0.131-1.744,1.065-2.616,2.8-2.616h7.2
		c1.865,0,2.8,0.94,2.8,2.815v32.185h15.8c1.865,0,2.8,0.919,2.8,2.757V284.834z"/>
	<path fill="#FFFFFF" stroke="#FFFFFF" stroke-width="3" stroke-miterlimit="10" d="M773.5,326.59c0,10.531-2.2,18.2-6.601,23
		c-5.334,5.866-12.734,8.801-22.2,8.801c-4.8,0-10.1-0.935-15.899-2.801c-5.8-1.868-8.7-3.534-8.7-5c0-0.534,0.135-1.068,0.396-1.6
		l3.781-8c0.266-0.8,0.797-1.2,1.591-1.2c0.135,0,0.601,0.132,1.394,0.4c6.369,3.331,12.335,5,17.906,5
		c6.101,0,9.947-2.2,11.541-6.601c1.06-2.934,1.591-8.134,1.591-15.6v-90.6h-15.825c-1.45,0-2.175-0.731-2.175-2.2v-7.8
		c0-1.601,0.731-2.4,2.2-2.4h28.8c1.466,0,2.2,0.8,2.2,2.4V326.59z M776.699,184.99c0,3.334-1.168,6.169-3.5,8.5
		c-2.334,2.334-5.168,3.5-8.5,3.5c-3.334,0-6.199-1.2-8.6-3.6c-2.4-2.4-3.6-5.266-3.6-8.601c0-3.331,1.199-6.165,3.6-8.5
		c2.4-2.331,5.331-3.5,8.8-3.5c3.2,0,5.966,1.2,8.3,3.601C775.531,178.79,776.699,181.659,776.699,184.99z"/>
</g>
<text transform="matrix(1 0 0 1 321.5 315.9902)" display="none" fill="#FFFFFF" stroke="#FFFFFF" stroke-width="3" stroke-miterlimit="10" font-family="'OfficinaSerifITCTTBook'" font-size="200" letter-spacing="2">Neo4j</text>
</svg>
