<?xml version="1.0" encoding="UTF-8" standalone="no"?>
<svg
   xmlns:dc="http://purl.org/dc/elements/1.1/"
   xmlns:cc="http://creativecommons.org/ns#"
   xmlns:rdf="http://www.w3.org/1999/02/22-rdf-syntax-ns#"
   xmlns:svg="http://www.w3.org/2000/svg"
   xmlns="http://www.w3.org/2000/svg"
   version="1.1"
   id="svg2"
   viewBox="0 0 744.09448819 1052.3622047"
   height="297mm"
   width="210mm">
  <defs
     id="defs4" />
  <metadata
     id="metadata7">
    <rdf:RDF>
      <cc:Work
         rdf:about="">
        <dc:format>image/svg+xml</dc:format>
        <dc:type
           rdf:resource="http://purl.org/dc/dcmitype/StillImage" />
        <dc:title></dc:title>
      </cc:Work>
    </rdf:RDF>
  </metadata>
  <g
     id="layer1">
    <g
       transform="matrix(0.13166233,0,0,0.13166233,31.359179,-5.15231)"
       id="g4184">
      <g
         id="Neo4j">
        <g
           id="g4139">
          <path
             style="fill:#008cc1"
             d="m 458.8,278.8 c 0,114 -92.4,206.4 -206.4,206.4 C 138.4,485.2 46,392.8 46,278.8 46,164.8 138.4,72.4 252.4,72.4 c 114,-0.1 206.4,92.4 206.4,206.4"
             id="path4141" />
          <path
             style="fill:#ffffff"
             d="m 137.5,211.1 c 0,9.1 -7.4,16.5 -16.5,16.5 -9.1,0 -16.5,-7.4 -16.5,-16.5 0,-9.1 7.4,-16.5 16.5,-16.5 9.2,0 16.5,7.4 16.5,16.5"
             id="path4143" />
          <path
             style="fill:#ffffff"
             d="m 140.3,256.4 c 0,9.1 -7.4,16.5 -16.5,16.5 -9.1,0 -16.5,-7.4 -16.5,-16.5 0,-9.1 7.4,-16.5 16.5,-16.5 9.1,0 16.5,7.3 16.5,16.5"
             id="path4145" />
          <path
             style="fill:#ffffff"
             d="m 150.4,304.4 c 0,9.1 -7.4,16.5 -16.5,16.5 -9.1,0 -16.5,-7.4 -16.5,-16.5 0,-9.1 7.4,-16.5 16.5,-16.5 9.1,-0.1 16.5,7.3 16.5,16.5"
             id="path4147" />
          <path
             style="fill:#ffffff"
             d="m 173,347.4 c 0,9.1 -7.4,16.5 -16.5,16.5 -9.1,0 -16.5,-7.4 -16.5,-16.5 0,-9.1 7.4,-16.5 16.5,-16.5 9.1,-0.1 16.5,7.3 16.5,16.5"
             id="path4149" />
          <path
             style="fill:#ffffff"
             d="m 349.7,407.5 c 0,9.1 -7.4,16.5 -16.5,16.5 -9.1,0 -16.5,-7.4 -16.5,-16.5 0,-9.1 7.4,-16.5 16.5,-16.5 9.1,0 16.5,7.4 16.5,16.5"
             id="path4151" />
          <path
             style="fill:#ffffff"
             d="m 379.7,372 c 0,9.1 -7.4,16.5 -16.5,16.5 -9.1,0 -16.5,-7.4 -16.5,-16.5 0,-9.1 7.4,-16.5 16.5,-16.5 9.1,0 16.5,7.4 16.5,16.5"
             id="path4153" />
          <path
             style="fill:#ffffff"
             d="m 292.7,121 c 0,9.1 -7.4,16.5 -16.5,16.5 -9.1,0 -16.5,-7.4 -16.5,-16.5 0,-9.1 7.4,-16.5 16.5,-16.5 9.1,0 16.5,7.4 16.5,16.5"
             id="path4155" />
          <path
             style="fill:#ffffff"
             d="m 249.3,105.8 c 0,9.1 -7.4,16.5 -16.5,16.5 -9.1,0 -16.5,-7.4 -16.5,-16.5 0,-9.1 7.4,-16.5 16.5,-16.5 9.1,0 16.5,7.4 16.5,16.5"
             id="path4157" />
          <circle
             style="fill:#66b245;stroke:#ffffff;stroke-width:3.5;stroke-miterlimit:10"
             stroke-miterlimit="10"
             cx="366.29999"
             cy="229.60001"
             r="110"
             id="circle4159" />
          <circle
             style="fill:#66b245;stroke:#ffffff;stroke-width:3.5;stroke-miterlimit:10"
             stroke-miterlimit="10"
             cx="215.60001"
             cy="453.89999"
             r="90"
             id="circle4161" />
          <circle
             style="fill:#66b245;stroke:#ffffff;stroke-width:3.5;stroke-miterlimit:10"
             stroke-miterlimit="10"
             cx="141.5"
             cy="119"
             r="60"
             id="circle4163" />
        </g>
        <g
           id="g4165">
          <path
             style="fill:#101010"
             d="m 527,157.8 20,0 0,38.8 c 9.6,-23.6 29.6,-42 70.4,-42 46.4,0 77.6,31.2 77.6,80.4 l 0,124.4 -20,0 0,-120.4 c 0,-40.4 -24.8,-65.6 -62,-65.6 -40.4,0 -66,31.2 -66,77.6 l 0,108.4 -20,0 0,-201.6 z"
             id="path4167" />
          <path
             style="fill:#101010"
             d="m 730.6,259 c 0,-62.8 42.8,-106 98.4,-106 54.8,0 93.6,45.2 93.6,100.4 0,0 0,6 -0.4,10 l -172,0 c 1.2,48.4 33.6,82.8 79.6,82.8 37.6,0 63.6,-16 75.6,-31.2 l 0,23.6 c -18.8,16.8 -41.6,26.4 -75.6,26.4 -58,0 -99.2,-42.4 -99.2,-104.8 l 0,-1.2 z M 901.4,245.4 C 901,204.2 869,171.8 829,171.8 c -42,0 -76.4,32.4 -78,73.6 l 150.4,0 z"
             id="path4169" />
          <path
             style="fill:#101010"
             d="m 1059.8,152.6 c 59.2,0 106,45.2 106,106 0,60.8 -46.8,106 -106,106 -59.2,0 -106,-45.2 -106,-106 0,-60.8 46.8,-106 106,-106 z m 0,193.2 c 49.2,0 86,-37.6 86,-87.2 0,-49.6 -36.8,-87.2 -86,-87.2 -49.2,0 -86,37.6 -86,87.2 0,49.6 36.8,87.2 86,87.2 z"
             id="path4171" />
          <path
             style="fill:#101010"
             d="m 1271.4,157.8 22.4,0 -85.6,182.4 124.4,0 0,-66 20.8,0 0,162.4 -20.8,0 0,-77.2 -156,0 94.8,-201.6 z"
             id="path4173" />
          <path
             style="fill:#101010"
             d="m 1421.8,157.8 20,0 0,229.6 c 0,45.2 -26,54.4 -51.2,54.4 -4.8,0 -10,-0.4 -13.2,-1.2 l 0,-18.8 c 4.8,0.8 10.4,1.2 15.2,1.2 20.4,0 29.2,-10 29.2,-35.6 l 0,-229.6 z m -4.4,-54 c 0,-8.4 6.8,-14.4 14.4,-14.4 7.6,0 14.4,6 14.4,14.4 0,8 -6.8,14 -14.4,14 -7.6,0 -14.4,-6 -14.4,-14 z"
             id="path4175" />
        </g>
      </g>
      <g
         id="Layer_2" />
    </g>
    <g
       id="flowRoot4207"
       style="fill:#0f5788"
       transform="translate(-4,32)">
      <path
         id="path4161"
         style="fill:#0f5788"
         d="m 145.10937,305.12495 -3.01757,0 0,-40.01953 -13.91602,0 0,-2.8125 30.84961,0 0,2.8125 -13.91602,0 0,40.01953 z" />
      <path
         id="path4163"
         style="fill:#0f5788"
         d="m 186.82812,305.12495 0,-20.6543 q 0,-4.80468 -2.02148,-6.97265 -2.02148,-2.19727 -6.26953,-2.19727 -5.71289,0 -8.37891,2.90039 -2.63672,2.8711 -2.63672,9.34571 l 0,17.57812 -2.90039,0 0,-45.58594 2.90039,0 0,14.50196 -0.14648,4.07226 0.20508,0 q 1.78711,-2.87109 4.51172,-4.16015 2.72461,-1.28907 6.76757,-1.28907 10.83985,0 10.83985,11.63086 l 0,20.83008 -2.8711,0 z" />
      <path
         id="path4165"
         style="fill:#0f5788"
         d="m 212.87305,305.71089 q -6.94336,0 -10.83985,-4.27735 -3.86718,-4.27734 -3.86718,-11.98242 0,-7.61719 3.75,-12.1875 3.75,-4.59961 10.10742,-4.59961 5.625,0 8.87695,3.92578 3.25195,3.92579 3.25195,10.66407 l 0,2.34375 -22.93945,0 q 0.0586,6.5625 3.04688,10.01953 3.01757,3.45703 8.61328,3.45703 2.72461,0 4.77539,-0.38086 2.08008,-0.38086 5.24414,-1.64063 l 0,2.63672 q -2.69531,1.17188 -4.98047,1.58203 -2.28516,0.43946 -5.03906,0.43946 z m -0.84961,-30.46875 q -4.59961,0 -7.38282,3.04687 -2.7832,3.01758 -3.25195,8.73047 l 19.6875,0 q 0,-5.53711 -2.40234,-8.64258 -2.40235,-3.13476 -6.65039,-3.13476 z" />
      <path
         id="path4168"
         style="fill:#0f5788"
         d="m 280.40234,305.12495 -3.01757,0 -25.3711,-38.02734 -0.23437,0 q 0.35156,6.79687 0.35156,10.2539 l 0,27.77344 -2.87109,0 0,-42.83203 2.98828,0 25.34179,37.96875 0.17578,0 q -0.26367,-5.27344 -0.26367,-10.01953 l 0,-27.94922 2.90039,0 0,42.83203 z" />
      <path
         id="path4170"
         style="fill:#0f5788"
         d="m 304.63086,305.71089 q -6.94336,0 -10.83984,-4.27735 -3.86719,-4.27734 -3.86719,-11.98242 0,-7.61719 3.75,-12.1875 3.75,-4.59961 10.10742,-4.59961 5.625,0 8.87695,3.92578 3.25196,3.92579 3.25196,10.66407 l 0,2.34375 -22.93946,0 q 0.0586,6.5625 3.04688,10.01953 3.01758,3.45703 8.61328,3.45703 2.72461,0 4.77539,-0.38086 2.08008,-0.38086 5.24414,-1.64063 l 0,2.63672 q -2.69531,1.17188 -4.98047,1.58203 -2.28515,0.43946 -5.03906,0.43946 z m -0.84961,-30.46875 q -4.59961,0 -7.38281,3.04687 -2.78321,3.01758 -3.25196,8.73047 l 19.6875,0 q 0,-5.53711 -2.40234,-8.64258 -2.40234,-3.13476 -6.65039,-3.13476 z" />
      <path
         id="path4172"
         style="fill:#0f5788"
         d="m 351.03711,289.15815 q 0,7.79297 -3.7793,12.1875 -3.77929,4.36524 -10.42969,4.36524 -4.18945,0 -7.38281,-2.02149 -3.19336,-2.02148 -4.89258,-5.80078 -1.69921,-3.77929 -1.69921,-8.73047 0,-7.79297 3.77929,-12.1289 3.7793,-4.36524 10.3711,-4.36524 6.5625,0 10.2832,4.42383 3.75,4.39453 3.75,12.07031 z m -25.13672,0 q 0,6.5625 2.87109,10.25391 2.90039,3.66211 8.17383,3.66211 5.27344,0 8.14453,-3.66211 2.90039,-3.69141 2.90039,-10.25391 0,-6.59179 -2.92968,-10.22461 -2.90039,-3.63281 -8.17383,-3.63281 -5.27344,0 -8.14453,3.63281 -2.8418,3.60352 -2.8418,10.22461 z" />
      <path
         id="path4174"
         style="fill:#0f5788"
         d="m 387.95117,294.19722 -7.38281,0 0,10.92773 -2.75391,0 0,-10.92773 -22.03125,0 0,-1.96289 21.24024,-30.17579 3.54492,0 0,29.61914 7.38281,0 0,2.51954 z m -10.13672,-2.51954 0,-12.24609 q 0,-8.84766 0.41016,-14.85351 l -0.23438,0 q -0.58593,1.08398 -3.60351,5.50781 l -15.11719,21.59179 18.54492,0 z" />
      <path
         id="path4176"
         style="fill:#0f5788"
         d="m 389.82617,319.53901 q -2.34375,0 -3.95508,-0.73242 l 0,-2.51953 q 2.02149,0.58594 3.7793,0.58594 4.42383,0 4.42383,-5.15625 l 0,-38.4375 2.90039,0 0,38.02734 q 0,3.95508 -1.875,6.09375 -1.8457,2.13867 -5.27344,2.13867 z m 3.83789,-55.10742 q 0,-2.8125 1.84571,-2.8125 0.9082,0 1.40625,0.73242 0.52734,0.73242 0.52734,2.08008 0,1.31836 -0.52734,2.08008 -0.49805,0.76172 -1.40625,0.76172 -1.84571,0 -1.84571,-2.8418 z" />
      <path
         id="path4178"
         style="fill:#0f5788"
         d="m 442.82422,305.12495 -15.9668,-39.55078 -0.23437,0 q 0.23437,3.63281 0.23437,7.44141 l 0,32.10937 -2.87109,0 0,-42.83203 4.6289,0 15.17579,37.67578 0.17578,0 15.17578,-37.67578 4.51172,0 0,42.83203 -3.01758,0 0,-32.46094 q 0,-3.39843 0.35156,-7.03125 l -0.23437,0 -16.02539,39.49219 -1.9043,0 z" />
      <path
         id="path4180"
         style="fill:#0f5788"
         d="m 494.38672,305.12495 -0.73242,-5.03906 -0.23438,0 q -2.40234,3.07617 -4.95117,4.36523 -2.51953,1.25977 -5.97656,1.25977 -4.6875,0 -7.29492,-2.40235 -2.60743,-2.40234 -2.60743,-6.65039 0,-4.6582 3.86719,-7.23632 3.89649,-2.57813 11.25,-2.72461 l 6.06445,-0.17579 0,-2.10937 q 0,-4.54102 -1.8457,-6.85547 -1.8457,-2.31445 -5.94726,-2.31445 -4.42383,0 -9.16993,2.46094 l -1.08398,-2.51954 q 5.24414,-2.46093 10.37109,-2.46093 5.24414,0 7.82227,2.72461 2.60742,2.72461 2.60742,8.49609 l 0,21.18164 -2.13867,0 z m -11.71875,-2.05078 q 5.09765,0 8.02734,-2.90039 2.95899,-2.92969 2.95899,-8.11524 l 0,-3.13476 -5.56641,0.23437 q -6.70898,0.32227 -9.58008,2.10938 -2.84179,1.75781 -2.84179,5.50781 0,2.98828 1.8164,4.6582 1.8457,1.64063 5.18555,1.64063 z" />
      <path
         id="path4182"
         style="fill:#0f5788"
         d="m 529.01562,305.12495 0,-20.6543 q 0,-4.80468 -2.02148,-6.97265 -2.02148,-2.19727 -6.26953,-2.19727 -5.71289,0 -8.37891,2.90039 -2.63672,2.8711 -2.63672,9.34571 l 0,17.57812 -2.90039,0 0,-31.8457 2.46094,0 0.55664,4.36523 0.17578,0 q 3.10547,-4.98047 11.04492,-4.98047 10.83985,0 10.83985,11.63086 l 0,20.83008 -2.8711,0 z" />
      <path
         id="path4184"
         style="fill:#0f5788"
         d="m 544.71875,273.27925 0,20.625 q 0,4.80468 2.02148,7.00195 2.02149,2.16797 6.26954,2.16797 5.68359,0 8.3496,-2.87109 2.69532,-2.8711 2.69532,-9.34571 l 0,-17.57812 2.87109,0 0,31.8457 -2.46094,0 -0.52734,-4.39453 -0.17578,0 q -3.10547,4.98047 -11.04492,4.98047 -10.86914,0 -10.86914,-11.63086 l 0,-20.80078 2.87109,0 z" />
      <path
         id="path4186"
         style="fill:#0f5788"
         d="m 596.92578,305.12495 -0.73242,-5.03906 -0.23438,0 q -2.40234,3.07617 -4.95117,4.36523 -2.51953,1.25977 -5.97656,1.25977 -4.6875,0 -7.29492,-2.40235 -2.60742,-2.40234 -2.60742,-6.65039 0,-4.6582 3.86718,-7.23632 3.89649,-2.57813 11.25,-2.72461 l 6.06446,-0.17579 0,-2.10937 q 0,-4.54102 -1.84571,-6.85547 -1.8457,-2.31445 -5.94726,-2.31445 -4.42383,0 -9.16992,2.46094 l -1.08399,-2.51954 q 5.24414,-2.46093 10.3711,-2.46093 5.24414,0 7.82226,2.72461 2.60742,2.72461 2.60742,8.49609 l 0,21.18164 -2.13867,0 z m -11.71875,-2.05078 q 5.09766,0 8.02734,-2.90039 2.95899,-2.92969 2.95899,-8.11524 l 0,-3.13476 -5.56641,0.23437 q -6.70898,0.32227 -9.58008,2.10938 -2.84179,1.75781 -2.84179,5.50781 0,2.98828 1.8164,4.6582 1.84571,1.64063 5.18555,1.64063 z" />
      <path
         id="path4188"
         style="fill:#0f5788"
         d="m 612.24805,305.12495 -2.90039,0 0,-45.58594 2.90039,0 0,45.58594 z" />
    </g>
  </g>
</svg>
