<svg xmlns="http://www.w3.org/2000/svg" neo-plan="neo-plan" query-plan="frame.response.table._response.plan" class="query-plan" viewBox="28.23607585827377 -580.4887118193891 434.7936578694704 590.4887118193891" height="590.4887118193891" width="434.7936578694704"><g class="link"><path fill="#DFE1E3" d="M 154.43987238000906 -470.2788844621514 C 154.43987238000906 -440.87840212158784 154.69101028267784 -440.87840212158784 154.69101028267784 -378.11420982735723 L 102.28341723920727 -378.11420982735723 C 102.28341723920727 -407.5146921679207 102.0322793365385 -407.5146921679207 102.0322793365385 -470.2788844621514 Z"/><text font-size="10" font-family="'Helvetica Neue',Helvetica,Arial,sans-serif" xml:space="preserve" text-anchor="end" y="-456.2788844621514" x="128.23607585827378">41 </text><text font-size="10" font-family="'Helvetica Neue',Helvetica,Arial,sans-serif" xml:space="preserve" text-anchor="start" y="-456.2788844621514" x="128.23607585827378">rows</text></g><g class="link"><path fill="#DFE1E3" d="M 153.46158235344546 -357.3917662682603 C 153.46158235344546 -332.8526961046914 154.72889491500445 -332.8526961046914 154.72889491500445 -276.5152722443559 L 104.78015772999859 -276.5152722443559 C 104.78015772999859 -301.0543424079249 103.51284516843963 -301.0543424079249 103.51284516843963 -357.3917662682603 Z"/><text font-size="10" font-family="'Helvetica Neue',Helvetica,Arial,sans-serif" xml:space="preserve" text-anchor="end" y="-343.3917662682603" x="128.48721376094255">34 </text><text font-size="10" font-family="'Helvetica Neue',Helvetica,Arial,sans-serif" xml:space="preserve" text-anchor="start" y="-343.3917662682603" x="128.48721376094255">rows</text></g><g class="link"><path fill="#DFE1E3" d="M 152.72447299482883 -254 C 152.72447299482883 -243.62312222183252 155.99968040007147 -243.62312222183252 155.99968040007147 -204 L 110.05978705541682 -204 C 110.05978705541682 -214.37687777816748 106.78457965017418 -214.37687777816748 106.78457965017418 -254 Z"/><text font-size="10" font-family="'Helvetica Neue',Helvetica,Arial,sans-serif" xml:space="preserve" text-anchor="end" y="-240" x="129.7545263225015">25 </text><text font-size="10" font-family="'Helvetica Neue',Helvetica,Arial,sans-serif" xml:space="preserve" text-anchor="start" y="-240" x="129.7545263225015">rows</text></g><g class="link"><path fill="#DFE1E3" d="M 155.99968040007147 -186 C 155.99968040007147 -175.62312222183252 160.69651488388809 -175.62312222183252 160.69651488388809 -136 L 114.75662153923344 -136 C 114.75662153923344 -146.37687777816748 110.05978705541682 -146.37687777816748 110.05978705541682 -186 Z"/><text font-size="10" font-family="'Helvetica Neue',Helvetica,Arial,sans-serif" xml:space="preserve" text-anchor="end" y="-172" x="133.02973372774414">25 </text><text font-size="10" font-family="'Helvetica Neue',Helvetica,Arial,sans-serif" xml:space="preserve" text-anchor="start" y="-172" x="133.02973372774414">rows</text></g><g class="link"><path fill="#DFE1E3" d="M 394.97843755868627 -541.0677290836653 C 394.97843755868627 -500.1522347744758 394.80983986563075 -500.1522347744758 394.80983986563075 -491.0677290836653 L 323.3888280374384 -491.0677290836653 C 323.3888280374384 -531.9832233928548 323.5574257304939 -531.9832233928548 323.5574257304939 -541.0677290836653 Z"/><text font-size="10" font-family="'Helvetica Neue',Helvetica,Arial,sans-serif" xml:space="preserve" text-anchor="end" y="-527.0677290836653" x="359.2679316445901">171 </text><text font-size="10" font-family="'Helvetica Neue',Helvetica,Arial,sans-serif" xml:space="preserve" text-anchor="start" y="-527.0677290836653" x="359.2679316445901">rows</text></g><g class="link"><path fill="#DFE1E3" d="M 402.09933395153456 -428.11420982735723 C 402.09933395153456 -419.02970413654674 402.11890860206586 -419.02970413654674 402.11890860206586 -378.11420982735723 L 316.11890860206586 -378.11420982735723 C 316.11890860206586 -387.1987155181677 316.09933395153456 -387.1987155181677 316.09933395153456 -428.11420982735723 Z"/><text font-size="10" font-family="'Helvetica Neue',Helvetica,Arial,sans-serif" xml:space="preserve" text-anchor="end" y="-414.11420982735723" x="359.09933395153456">506 </text><text font-size="10" font-family="'Helvetica Neue',Helvetica,Arial,sans-serif" xml:space="preserve" text-anchor="start" y="-414.11420982735723" x="359.09933395153456">rows</text></g><g class="link"><path fill="#DFE1E3" d="M 360.11890860206586 -326.5152722443559 C 360.11890860206586 -302.1518920167235 361.10699457731243 -302.1518920167235 361.10699457731243 -276.5152722443559 L 359.10699457731243 -276.5152722443559 C 359.10699457731243 -300.87865247198835 358.11890860206586 -300.87865247198835 358.11890860206586 -326.5152722443559 Z"/><text font-size="10" font-family="'Helvetica Neue',Helvetica,Arial,sans-serif" xml:space="preserve" text-anchor="end" y="-312.5152722443559" x="359.11890860206586">0 </text><text font-size="10" font-family="'Helvetica Neue',Helvetica,Arial,sans-serif" xml:space="preserve" text-anchor="start" y="-312.5152722443559" x="359.11890860206586">rows</text></g><g class="link"><path fill="#DFE1E3" d="M 361.10699457731243 -258.5152722443559 C 361.10699457731243 -231.89425589454555 364.02973372774414 -231.89425589454555 364.02973372774414 -204 L 362.02973372774414 -204 C 362.02973372774414 -230.62101634981036 359.10699457731243 -230.62101634981036 359.10699457731243 -258.5152722443559 Z"/><text font-size="10" font-family="'Helvetica Neue',Helvetica,Arial,sans-serif" xml:space="preserve" text-anchor="end" y="-244.5152722443559" x="360.10699457731243">0 </text><text font-size="10" font-family="'Helvetica Neue',Helvetica,Arial,sans-serif" xml:space="preserve" text-anchor="start" y="-244.5152722443559" x="360.10699457731243">rows</text></g><g class="link"><path fill="#DFE1E3" d="M 364.02973372774414 -186 C 364.02973372774414 -160.3633802276324 162.69651488388809 -160.3633802276324 162.69651488388809 -136 L 160.69651488388809 -136 C 160.69651488388809 -161.6366197723676 362.02973372774414 -161.6366197723676 362.02973372774414 -186 Z"/><text font-size="10" font-family="'Helvetica Neue',Helvetica,Arial,sans-serif" xml:space="preserve" text-anchor="end" y="-172" x="363.02973372774414">0 </text><text font-size="10" font-family="'Helvetica Neue',Helvetica,Arial,sans-serif" xml:space="preserve" text-anchor="start" y="-172" x="363.02973372774414">rows</text></g><g class="link"><path fill="#DFE1E3" d="M 161.69651488388809 -118 C 161.69651488388809 -78.3768777781675 160.00898418052736 -78.3768777781675 160.00898418052736 -68 L 114.06909083587271 -68 C 114.06909083587271 -107.6231222218325 115.75662153923344 -107.6231222218325 115.75662153923344 -118 Z"/><text font-size="10" font-family="'Helvetica Neue',Helvetica,Arial,sans-serif" xml:space="preserve" text-anchor="end" y="-104" x="138.72656821156076">25 </text><text font-size="10" font-family="'Helvetica Neue',Helvetica,Arial,sans-serif" xml:space="preserve" text-anchor="start" y="-104" x="138.72656821156076">rows</text></g><g class="operator" transform="translate(47.03903579711914,-68)"><g class="header" pointer-events="all"><path class="banner" d="M 176 0 A 4 4 0 0 1 180 4 L 180 14 A 4 4 0 0 1 176 18 L 4 18 A 4 4 0 0 1 0 14 L 0 4 A 4 4 0 0 1 4 0 Z" style="fill: rgb(198, 219, 239);"/><text class="title" font-size="11" font-family="'Helvetica Neue',Helvetica,Arial,sans-serif" x="18" y="13" fill="#000000">Result</text></g><rect class="outline" stroke-width="1" fill="none" ry="4" rx="4" height="18" width="180" style="stroke: rgb(138, 153, 167);"/><path class="cost" fill="#F25A29" d="M 176 18 A 4 4 0 0 1 176 18 L 4 18 A 4 4 0 0 1 4 18 Z"/></g><g class="operator" transform="translate(48.726566314697266,-136)"><g class="header" pointer-events="all"><path class="banner" d="M 176 0 A 4 4 0 0 1 180 4 L 180 14 A 4 4 0 0 1 176 18 L 4 18 A 4 4 0 0 1 0 14 L 0 4 A 4 4 0 0 1 4 0 Z" style="fill: rgb(107, 174, 214);"/><path class="expand" fill="#FFFFFF" d="M -5 -10 L 8.66 0 L -5 10 Z" transform="translate(9, 9) rotate(0) scale(0.5)"/><text class="title" font-size="11" font-family="'Helvetica Neue',Helvetica,Arial,sans-serif" x="18" y="13" fill="#FFFFFF">Union</text></g><rect class="outline" stroke-width="1" fill="none" ry="4" rx="4" height="18" width="180" style="stroke: rgb(74, 121, 149);"/><path class="cost" fill="#F25A29" d="M 176 18 A 4 4 0 0 1 176 18 L 4 18 A 4 4 0 0 1 4 18 Z"/></g><g class="operator" transform="translate(43.02973556518555,-204)"><g class="header" pointer-events="all"><path class="banner" d="M 176 0 A 4 4 0 0 1 180 4 L 180 14 A 4 4 0 0 1 176 18 L 4 18 A 4 4 0 0 1 0 14 L 0 4 A 4 4 0 0 1 4 0 Z" style="fill: rgb(107, 174, 214);"/><path class="expand" fill="#FFFFFF" d="M -5 -10 L 8.66 0 L -5 10 Z" transform="translate(9, 9) rotate(0) scale(0.5)"/><text class="title" font-size="11" font-family="'Helvetica Neue',Helvetica,Arial,sans-serif" x="18" y="13" fill="#FFFFFF">Limit</text></g><rect class="outline" stroke-width="1" fill="none" ry="4" rx="4" height="18" width="180" style="stroke: rgb(74, 121, 149);"/><path class="cost" fill="#F25A29" d="M 176 18 A 4 4 0 0 1 176 18 L 4 18 A 4 4 0 0 1 4 18 Z"/></g><g class="operator" transform="translate(39.7545280456543,-276.5152587890625)"><g class="header" pointer-events="all"><path class="banner" d="M 176 0 A 4 4 0 0 1 180 4 L 180 14 A 4 4 0 0 1 180 18 L 0 18 A 4 4 0 0 1 0 14 L 0 4 A 4 4 0 0 1 4 0 Z" style="fill: rgb(33, 113, 181);"/><path class="expand" fill="#FFFFFF" d="M -5 -10 L 8.66 0 L -5 10 Z" transform="translate(9, 9) rotate(0) scale(0.5)"/><text class="title" font-size="11" font-family="'Helvetica Neue',Helvetica,Arial,sans-serif" x="18" y="13" fill="#FFFFFF">Distinct</text></g><rect class="outline" stroke-width="1" fill="none" ry="4" rx="4" height="22.51527224435591" width="180" style="stroke: rgb(23, 79, 126);"/><path class="cost" fill="#F25A29" d="M 0 18 L 180 18 L 180 18.51527224435591 A 4 4 0 0 1 176 22.51527224435591 L 4 22.51527224435591 A 4 4 0 0 1 0 18.51527224435591 Z"/></g><g class="operator" transform="translate(38.487213134765625,-378.11419677734375)"><g class="header" pointer-events="all"><path class="banner" d="M 176 0 A 4 4 0 0 1 180 4 L 180 14 A 4 4 0 0 1 179.79049463003275 18 L 0.20950536996724933 18 A 4 4 0 0 1 0 14 L 0 4 A 4 4 0 0 1 4 0 Z" style="fill: rgb(33, 113, 181);"/><path class="expand" fill="#FFFFFF" d="M -5 -10 L 8.66 0 L -5 10 Z" transform="translate(9, 9) rotate(0) scale(0.5)"/><text class="title" font-size="11" font-family="'Helvetica Neue',Helvetica,Arial,sans-serif" x="18" y="13" fill="#FFFFFF">Filter</text></g><rect class="outline" stroke-width="1" fill="none" ry="4" rx="4" height="20.722443559096945" width="180" style="stroke: rgb(23, 79, 126);"/><path class="cost" fill="#F25A29" d="M 179.79049463003275 18 A 4 4 0 0 1 176 20.722443559096945 L 4 20.722443559096945 A 4 4 0 0 1 0.20950536996724933 18 Z"/></g><g class="operator" transform="translate(38.23607635498047,-491.0677185058594)"><g class="header" pointer-events="all"><path class="banner" d="M 176 0 A 4 4 0 0 1 180 4 L 180 14 A 4 4 0 0 1 179.81223066578667 18 L 0.18776933421332664 18 A 4 4 0 0 1 0 14 L 0 4 A 4 4 0 0 1 4 0 Z" style="fill: rgb(158, 202, 225);"/><path class="expand" fill="#000000" d="M -5 -10 L 8.66 0 L -5 10 Z" transform="translate(9, 9) rotate(0) scale(0.5)"/><text class="title" font-size="11" font-family="'Helvetica Neue',Helvetica,Arial,sans-serif" x="18" y="13" fill="#000000">AllNodesScan</text></g><rect class="outline" stroke-width="1" fill="none" ry="4" rx="4" height="20.788844621513945" width="180" style="stroke: rgb(110, 141, 157);"/><path class="cost" fill="#F25A29" d="M 179.81223066578667 18 A 4 4 0 0 1 176 20.788844621513945 L 4 20.788844621513945 A 4 4 0 0 1 0.1877693342133271 18 Z"/></g><g class="operator" transform="translate(273.02972412109375,-204)"><g class="header" pointer-events="all"><path class="banner" d="M 176 0 A 4 4 0 0 1 180 4 L 180 14 A 4 4 0 0 1 176 18 L 4 18 A 4 4 0 0 1 0 14 L 0 4 A 4 4 0 0 1 4 0 Z" style="fill: rgb(107, 174, 214);"/><path class="expand" fill="#FFFFFF" d="M -5 -10 L 8.66 0 L -5 10 Z" transform="translate(9, 9) rotate(0) scale(0.5)"/><text class="title" font-size="11" font-family="'Helvetica Neue',Helvetica,Arial,sans-serif" x="18" y="13" fill="#FFFFFF">Limit</text></g><rect class="outline" stroke-width="1" fill="none" ry="4" rx="4" height="18" width="180" style="stroke: rgb(74, 121, 149);"/><path class="cost" fill="#F25A29" d="M 176 18 A 4 4 0 0 1 176 18 L 4 18 A 4 4 0 0 1 4 18 Z"/></g><g class="operator" transform="translate(270.10699462890625,-276.5152587890625)"><g class="header" pointer-events="all"><path class="banner" d="M 176 0 A 4 4 0 0 1 180 4 L 180 14 A 4 4 0 0 1 176 18 L 4 18 A 4 4 0 0 1 0 14 L 0 4 A 4 4 0 0 1 4 0 Z" style="fill: rgb(33, 113, 181);"/><path class="expand" fill="#FFFFFF" d="M -5 -10 L 8.66 0 L -5 10 Z" transform="translate(9, 9) rotate(0) scale(0.5)"/><text class="title" font-size="11" font-family="'Helvetica Neue',Helvetica,Arial,sans-serif" x="18" y="13" fill="#FFFFFF">Distinct</text></g><rect class="outline" stroke-width="1" fill="none" ry="4" rx="4" height="18" width="180" style="stroke: rgb(23, 79, 126);"/><path class="cost" fill="#F25A29" d="M 176 18 A 4 4 0 0 1 176 18 L 4 18 A 4 4 0 0 1 4 18 Z"/></g><g class="operator" transform="translate(269.118896484375,-378.11419677734375)"><g class="header" pointer-events="all"><path class="banner" d="M 176 0 A 4 4 0 0 1 180 4 L 180 14 A 4 4 0 0 1 180 18 L 0 18 A 4 4 0 0 1 0 14 L 0 4 A 4 4 0 0 1 4 0 Z" style="fill: rgb(33, 113, 181);"/><path class="expand" fill="#FFFFFF" d="M -5 -10 L 8.66 0 L -5 10 Z" transform="translate(9, 9) rotate(0) scale(0.5)"/><text class="title" font-size="11" font-family="'Helvetica Neue',Helvetica,Arial,sans-serif" x="18" y="13" fill="#FFFFFF">Filter</text></g><rect class="outline" stroke-width="1" fill="none" ry="4" rx="4" height="51.59893758300132" width="180" style="stroke: rgb(23, 79, 126);"/><path class="cost" fill="#F25A29" d="M 0 18 L 180 18 L 180 47.59893758300132 A 4 4 0 0 1 176 51.59893758300132 L 4 51.59893758300132 A 4 4 0 0 1 0 47.59893758300132 Z"/><text class="cost" font-size="10" font-family="'Helvetica Neue',Helvetica,Arial,sans-serif" fill="white" x="90" text-anchor="end" xml:space="preserve" y="32">506 </text><text class="cost" font-size="10" font-family="'Helvetica Neue',Helvetica,Arial,sans-serif" fill="white" x="90" text-anchor="start" xml:space="preserve" y="32">db hits</text></g><g class="operator" transform="translate(269.0993347167969,-491.0677185058594)"><g class="header" pointer-events="all"><path class="banner" d="M 176 0 A 4 4 0 0 1 180 4 L 180 14 A 4 4 0 0 1 180 18 L 0 18 A 4 4 0 0 1 0 14 L 0 4 A 4 4 0 0 1 4 0 Z" style="fill: rgb(8, 81, 156);"/><path class="expand" fill="#FFFFFF" d="M -5 -10 L 8.66 0 L -5 10 Z" transform="translate(9, 9) rotate(0) scale(0.5)"/><text class="title" font-size="11" font-family="'Helvetica Neue',Helvetica,Arial,sans-serif" x="18" y="13" fill="#FFFFFF">Expand(All)</text></g><rect class="outline" stroke-width="1" fill="none" ry="4" rx="4" height="62.9535192563081" width="180" style="stroke: rgb(5, 56, 109);"/><path class="cost" fill="#F25A29" d="M 0 18 L 180 18 L 180 58.9535192563081 A 4 4 0 0 1 176 62.9535192563081 L 4 62.9535192563081 A 4 4 0 0 1 0 58.9535192563081 Z"/><text class="cost" font-size="10" font-family="'Helvetica Neue',Helvetica,Arial,sans-serif" fill="white" x="90" text-anchor="end" xml:space="preserve" y="32">677 </text><text class="cost" font-size="10" font-family="'Helvetica Neue',Helvetica,Arial,sans-serif" fill="white" x="90" text-anchor="start" xml:space="preserve" y="32">db hits</text></g><g class="operator" transform="translate(269.2679443359375,-570.4887084960938)"><g class="header" pointer-events="all"><path class="banner" d="M 176 0 A 4 4 0 0 1 180 4 L 180 14 A 4 4 0 0 1 180 18 L 0 18 A 4 4 0 0 1 0 14 L 0 4 A 4 4 0 0 1 4 0 Z" style="fill: rgb(158, 202, 225);"/><path class="expand" fill="#000000" d="M -5 -10 L 8.66 0 L -5 10 Z" transform="translate(9, 9) rotate(0) scale(0.5)"/><text class="title" font-size="11" font-family="'Helvetica Neue',Helvetica,Arial,sans-serif" x="18" y="13" fill="#000000">AllNodesScan</text></g><rect class="outline" stroke-width="1" fill="none" ry="4" rx="4" height="29.42098273572377" width="180" style="stroke: rgb(110, 141, 157);"/><path class="cost" fill="#F25A29" d="M 0 18 L 180 18 L 180 25.42098273572377 A 4 4 0 0 1 176 29.42098273572377 L 4 29.42098273572377 A 4 4 0 0 1 0 25.42098273572377 Z"/></g></svg>