<?xml version="1.0" encoding="UTF-8" standalone="no"?>
<svg width="366px" height="321px" viewBox="0 0 244 214" version="1.1" xmlns="http://www.w3.org/2000/svg" xmlns:xlink="http://www.w3.org/1999/xlink" xmlns:sketch="http://www.bohemiancoding.com/sketch/ns">
    <title>query-plan-operator-details</title>
    <description>Created with Sketch (http://www.bohemiancoding.com/sketch)</description>
    <defs></defs>
    <g id="Page-1" stroke="none" stroke-width="1" fill="none" fill-rule="evenodd" sketch:type="MSPage">
        <g id="plan-(8)" sketch:type="MSLayerGroup" transform="translate(-6.000000, 1.000000)">
            <g id="Group" transform="translate(115.000000, 0.000000)">
                <path d="M86.099334,-0.114209827 C86.099334,8.97029586 86.1189086,8.97029586 86.1189086,49.8857902 L0.118908602,49.8857902 C0.118908602,40.8012845 0.0993339515,40.8012845 0.0993339515,-0.114209827 L86.099334,-0.114209827 Z" id="Shape" fill="#DFE1E3" sketch:type="MSShapeGroup"></path>
                <text id="506" fill="#000000" sketch:type="MSTextLayer" font-family="Helvetica" font-size="10" font-weight="normal">
                    <tspan x="24.099334" y="27.8857902">506</tspan>
                </text>
                <text id="rows" fill="#000000" sketch:type="MSTextLayer" font-family="Helvetica" font-size="10" font-weight="normal">
                    <tspan x="43.099334" y="27.8857902">rows</tspan>
                </text>
            </g>
            <g id="Group" transform="translate(150.000000, 161.000000)">
                <path d="M9.1189086,0.484727756 C9.1189086,24.848108 10.1069946,24.848108 10.1069946,50.4847278 L8.10699458,50.4847278 C8.10699458,26.1213475 7.1189086,26.1213475 7.1189086,0.484727756 L9.1189086,0.484727756 Z" id="Shape" fill="#DFE1E3" sketch:type="MSShapeGroup"></path>
                <text id="0" fill="#000000" sketch:type="MSTextLayer" font-family="Helvetica" font-size="10" font-weight="normal">
                    <tspan x="0.118908602" y="23.4847278">0</tspan>
                </text>
                <text id="rows" fill="#000000" sketch:type="MSTextLayer" font-family="Helvetica" font-size="10" font-weight="normal">
                    <tspan x="8.1189086" y="23.4847278">rows</tspan>
                </text>
            </g>
            <g id="Group" transform="translate(67.118896, 49.885803)">
                <g>
                    <path d="M177,0 C179.209139,1.3527075e-16 181,1.790861 181,4 L181,14 C181.714531,15.2376043 181.714531,16.7623957 181,18 L1,18 C0.28546882,16.7623957 0.28546882,15.2376043 1,14 L1,4 C1,1.790861 2.790861,4.05812251e-16 5,0 L177,0 Z" id="Shape" fill="#2171B5" sketch:type="MSShapeGroup"></path>
                    <path d="M6.5,5 L13.33,10 L6.5,15 L6.5,5 Z" id="Shape" fill="#FFFFFF" sketch:type="MSShapeGroup" transform="translate(10.000000, 10.000000) rotate(90.000000) translate(-10.000000, -10.000000) "></path>
                    <text id="Filter" fill="#FFFFFF" sketch:type="MSTextLayer" font-family="Helvetica" font-size="11" font-weight="normal">
                        <tspan x="19" y="13">Filter</tspan>
                    </text>
                </g>
                <rect id="Rectangle" stroke="#174F7E" sketch:type="MSShapeGroup" x="1" y="0" width="180" height="111.598938" rx="4"></rect>
                <path d="M1,78 L181,78 L181,107.598938 C181,109.808077 179.209139,111.598938 177,111.598938 L5,111.598938 C2.790861,111.598938 1,109.808077 1,107.598938 L1,78 Z" id="Shape" fill="#F25A29" sketch:type="MSShapeGroup"></path>
                <text id="506" fill="#FFFFFF" sketch:type="MSTextLayer" font-family="Helvetica" font-size="10" font-weight="normal">
                    <tspan x="72" y="92" fill="#000000">506</tspan>
                </text>
                <text id="db-hits" fill="#FFFFFF" sketch:type="MSTextLayer" font-family="Helvetica" font-size="10" font-weight="normal">
                    <tspan x="91" y="92" fill="#000000">db hits</tspan>
                </text>
                <g transform="translate(4.000000, 22.000000)" id="r" font-size="10" font-family="Monaco" fill="#000000" sketch:type="MSTextLayer" font-weight="normal">
                    <text>
                        <tspan x="0" y="10">r</tspan>
                    </text>
                </g>
                <g transform="translate(1.000000, 40.000000)" id="Shape" stroke="#DFE1E3" fill="#000000" sketch:type="MSShapeGroup">
                    <path d="M0,0 L180,0"></path>
                </g>
                <g transform="translate(4.000000, 42.000000)" id="hasProp(born)" font-size="10" font-family="Monaco" fill="#000000" sketch:type="MSTextLayer" font-weight="normal">
                    <text>
                        <tspan x="0" y="10">hasProp(born)</tspan>
                    </text>
                </g>
                <g transform="translate(1.000000, 60.000000)" id="Shape" stroke="#DFE1E3" fill="#000000" sketch:type="MSShapeGroup">
                    <path d="M0,0 L180,0"></path>
                </g>
                <g transform="translate(72.000000, 62.000000)" font-size="10" font-family="Helvetica" fill="#000000" sketch:type="MSTextLayer" font-weight="normal">
                    <text id="378">
                        <tspan x="0" y="10">378</tspan>
                    </text>
                    <text id="estimated-rows">
                        <tspan x="19" y="10">estimated rows</tspan>
                    </text>
                </g>
            </g>
            <text id="identifiers:" fill="#000000" sketch:type="MSTextLayer" font-family="Helvetica" font-size="10" font-weight="normal" sketch:alignment="right">
                <tspan x="16.7988281" y="82.1142098">identifiers:</tspan>
            </text>
            <text id="expression:" fill="#000000" sketch:type="MSTextLayer" font-family="Helvetica" font-size="10" font-weight="normal" sketch:alignment="right">
                <tspan x="11.2373047" y="102.11421">expression:</tspan>
            </text>
        </g>
    </g>
</svg>