<?xml version="1.0" encoding="utf-8"?>
<!-- Generator: Adobe Illustrator 18.1.0, SVG Export Plug-In . SVG Version: 6.00 Build 0)  -->
<svg version="1.1" id="Neo4j" xmlns="http://www.w3.org/2000/svg" xmlns:xlink="http://www.w3.org/1999/xlink" x="0px" y="0px"
	 viewBox="0 0 800 300" enable-background="new 0 0 800 300" xml:space="preserve">
<g>
	<path fill="#008CC1" d="M244.7,139.2c0,60.7-49.2,109.8-109.8,109.8C74.2,249,25,199.8,25,139.2C25,78.5,74.2,29.3,134.8,29.3
		C195.5,29.3,244.7,78.5,244.7,139.2"/>
	<path fill="#FFFFFF" d="M73.7,103.2c0,4.9-3.9,8.8-8.8,8.8c-4.9,0-8.8-3.9-8.8-8.8c0-4.9,3.9-8.8,8.8-8.8
		C69.8,94.4,73.7,98.3,73.7,103.2"/>
	<path fill="#FFFFFF" d="M75.2,127.3c0,4.9-3.9,8.8-8.8,8.8c-4.9,0-8.8-3.9-8.8-8.8c0-4.9,3.9-8.8,8.8-8.8
		C71.3,118.5,75.2,122.4,75.2,127.3"/>
	<path fill="#FFFFFF" d="M80.6,152.8c0,4.9-3.9,8.8-8.8,8.8c-4.9,0-8.8-3.9-8.8-8.8c0-4.9,3.9-8.8,8.8-8.8
		C76.6,144,80.6,147.9,80.6,152.8"/>
	<path fill="#FFFFFF" d="M92.6,175.7c0,4.9-3.9,8.8-8.8,8.8c-4.9,0-8.8-3.9-8.8-8.8c0-4.9,3.9-8.8,8.8-8.8
		C88.7,166.9,92.6,170.8,92.6,175.7"/>
	<path fill="#FFFFFF" d="M186.6,207.7c0,4.9-3.9,8.8-8.8,8.8c-4.9,0-8.8-3.9-8.8-8.8c0-4.9,3.9-8.8,8.8-8.8
		C182.7,198.9,186.6,202.8,186.6,207.7"/>
	<path fill="#FFFFFF" d="M202.6,188.8c0,4.9-3.9,8.8-8.8,8.8c-4.9,0-8.8-3.9-8.8-8.8c0-4.9,3.9-8.8,8.8-8.8
		C198.7,180,202.6,183.9,202.6,188.8"/>
	<path fill="#FFFFFF" d="M156.3,55.2c0,4.9-3.9,8.8-8.8,8.8c-4.9,0-8.8-3.9-8.8-8.8c0-4.9,3.9-8.8,8.8-8.8
		C152.4,46.4,156.3,50.4,156.3,55.2"/>
	<path fill="#FFFFFF" d="M133.2,47.1c0,4.9-3.9,8.8-8.8,8.8c-4.9,0-8.8-3.9-8.8-8.8c0-4.9,3.9-8.8,8.8-8.8
		C129.3,38.3,133.2,42.3,133.2,47.1"/>
	<circle fill="#66B245" stroke="#FFFFFF" stroke-width="3.5" stroke-miterlimit="10" cx="195.5" cy="113" r="58.5"/>
	<circle fill="#66B245" stroke="#FFFFFF" stroke-width="3.5" stroke-miterlimit="10" cx="115.3" cy="232.3" r="47.9"/>
	<circle fill="#66B245" stroke="#FFFFFF" stroke-width="3.5" stroke-miterlimit="10" cx="75.9" cy="54.2" r="31.9"/>
</g>
<g>
	<path fill="#FFFFFF" d="M281,74.8h10.6v20.6c5.1-12.6,15.8-22.3,37.5-22.3c24.7,0,41.3,16.6,41.3,42.8v66.2h-10.6V118
		c0-21.5-13.2-34.9-33-34.9c-21.5,0-35.1,16.6-35.1,41.3v57.7H281V74.8z"/>
	<path fill="#FFFFFF" d="M389.3,128.7c0-33.4,22.8-56.4,52.4-56.4c29.2,0,49.8,24.1,49.8,53.4c0,0,0,3.2-0.2,5.3h-91.5
		c0.6,25.8,17.9,44.1,42.4,44.1c20,0,33.8-8.5,40.2-16.6V171c-10,8.9-22.1,14-40.2,14c-30.9,0-52.8-22.6-52.8-55.8V128.7z
		 M480.2,121.4C480,99.5,463,82.3,441.7,82.3c-22.3,0-40.7,17.2-41.5,39.2H480.2z"/>
	<path fill="#FFFFFF" d="M564.5,72c31.5,0,56.4,24.1,56.4,56.4c0,32.4-24.9,56.4-56.4,56.4c-31.5,0-56.4-24.1-56.4-56.4
		C508.1,96.1,533,72,564.5,72z M564.5,174.8c26.2,0,45.8-20,45.8-46.4S590.7,82,564.5,82c-26.2,0-45.8,20-45.8,46.4
		S538.3,174.8,564.5,174.8z"/>
	<path fill="#FFFFFF" d="M677.1,74.8H689l-45.6,97.1h66.2v-35.1h11.1v86.4h-11.1v-41.1h-83L677.1,74.8z"/>
	<path fill="#FFFFFF" d="M757.1,74.8h10.6V197c0,24.1-13.8,28.9-27.2,28.9c-2.6,0-5.3-0.2-7-0.6v-10c2.6,0.4,5.5,0.6,8.1,0.6
		c10.9,0,15.5-5.3,15.5-18.9V74.8z M754.8,46.1c0-4.5,3.6-7.7,7.7-7.7c4,0,7.7,3.2,7.7,7.7c0,4.3-3.6,7.4-7.7,7.4
		C758.4,53.5,754.8,50.3,754.8,46.1z"/>
</g>
</svg>
